<mxfile host="app.diagrams.net" modified="2024-05-03T18:04:53.341Z" agent="Mozilla/5.0 (Macintosh; Intel Mac OS X 10_15_7) AppleWebKit/605.1.15 (KHTML, like Gecko) Version/17.4.1 Safari/605.1.15" etag="SQrWsxnuVKq3u4Nfk78u" version="24.3.1" type="device">
  <diagram name="Page-1" id="d-1z4MYt4A5wvooLqG4g">
    <mxGraphModel dx="1244" dy="526" grid="1" gridSize="10" guides="1" tooltips="1" connect="1" arrows="1" fold="1" page="1" pageScale="1" pageWidth="827" pageHeight="1169" math="0" shadow="0">
      <root>
        <mxCell id="0" />
        <mxCell id="1" parent="0" />
        <mxCell id="24Fvi4qvlNOgEENzGj-l-37" style="edgeStyle=orthogonalEdgeStyle;rounded=0;orthogonalLoop=1;jettySize=auto;html=1;exitX=0;exitY=0.5;exitDx=0;exitDy=0;endArrow=none;endFill=0;" edge="1" parent="1" source="24Fvi4qvlNOgEENzGj-l-1">
          <mxGeometry relative="1" as="geometry">
            <mxPoint x="150" y="840" as="targetPoint" />
          </mxGeometry>
        </mxCell>
        <mxCell id="24Fvi4qvlNOgEENzGj-l-38" style="edgeStyle=orthogonalEdgeStyle;rounded=0;orthogonalLoop=1;jettySize=auto;html=1;exitX=0.5;exitY=0;exitDx=0;exitDy=0;endArrow=none;endFill=0;" edge="1" parent="1" source="24Fvi4qvlNOgEENzGj-l-1">
          <mxGeometry relative="1" as="geometry">
            <mxPoint x="100" y="740" as="targetPoint" />
          </mxGeometry>
        </mxCell>
        <mxCell id="24Fvi4qvlNOgEENzGj-l-43" style="edgeStyle=orthogonalEdgeStyle;rounded=0;orthogonalLoop=1;jettySize=auto;html=1;exitX=0.75;exitY=0;exitDx=0;exitDy=0;endArrow=circlePlus;endFill=0;" edge="1" parent="1" source="24Fvi4qvlNOgEENzGj-l-1">
          <mxGeometry relative="1" as="geometry">
            <mxPoint x="90" y="690" as="targetPoint" />
          </mxGeometry>
        </mxCell>
        <mxCell id="24Fvi4qvlNOgEENzGj-l-44" value="s=1" style="edgeLabel;html=1;align=center;verticalAlign=middle;resizable=0;points=[];" vertex="1" connectable="0" parent="24Fvi4qvlNOgEENzGj-l-43">
          <mxGeometry x="0.5271" y="-9" relative="1" as="geometry">
            <mxPoint x="1" y="2" as="offset" />
          </mxGeometry>
        </mxCell>
        <mxCell id="24Fvi4qvlNOgEENzGj-l-1" value="" style="verticalLabelPosition=middle;verticalAlign=middle;html=1;shape=trapezoid;perimeter=trapezoidPerimeter;whiteSpace=wrap;size=0.23;arcSize=10;flipV=1;labelPosition=center;align=center;rotation=-90;" vertex="1" parent="1">
          <mxGeometry x="100" y="710" width="100" height="60" as="geometry" />
        </mxCell>
        <mxCell id="24Fvi4qvlNOgEENzGj-l-34" style="edgeStyle=orthogonalEdgeStyle;rounded=0;orthogonalLoop=1;jettySize=auto;html=1;entryX=0;entryY=0.75;entryDx=0;entryDy=0;endArrow=none;endFill=0;" edge="1" parent="1" source="24Fvi4qvlNOgEENzGj-l-2" target="24Fvi4qvlNOgEENzGj-l-7">
          <mxGeometry relative="1" as="geometry" />
        </mxCell>
        <mxCell id="24Fvi4qvlNOgEENzGj-l-36" style="edgeStyle=orthogonalEdgeStyle;rounded=0;orthogonalLoop=1;jettySize=auto;html=1;exitX=0;exitY=0.5;exitDx=0;exitDy=0;endArrow=none;endFill=0;" edge="1" parent="1" source="24Fvi4qvlNOgEENzGj-l-2">
          <mxGeometry relative="1" as="geometry">
            <mxPoint x="310" y="840" as="targetPoint" />
          </mxGeometry>
        </mxCell>
        <mxCell id="24Fvi4qvlNOgEENzGj-l-41" style="edgeStyle=orthogonalEdgeStyle;rounded=0;orthogonalLoop=1;jettySize=auto;html=1;exitX=0.75;exitY=0;exitDx=0;exitDy=0;endArrow=circlePlus;endFill=0;" edge="1" parent="1" source="24Fvi4qvlNOgEENzGj-l-2">
          <mxGeometry relative="1" as="geometry">
            <mxPoint x="250" y="670" as="targetPoint" />
          </mxGeometry>
        </mxCell>
        <mxCell id="24Fvi4qvlNOgEENzGj-l-2" value="" style="verticalLabelPosition=middle;verticalAlign=middle;html=1;shape=trapezoid;perimeter=trapezoidPerimeter;whiteSpace=wrap;size=0.23;arcSize=10;flipV=1;labelPosition=center;align=center;rotation=-90;" vertex="1" parent="1">
          <mxGeometry x="260" y="690" width="100" height="60" as="geometry" />
        </mxCell>
        <mxCell id="24Fvi4qvlNOgEENzGj-l-10" style="edgeStyle=orthogonalEdgeStyle;rounded=0;orthogonalLoop=1;jettySize=auto;html=1;exitX=0.5;exitY=1;exitDx=0;exitDy=0;entryX=0;entryY=0.75;entryDx=0;entryDy=0;endArrow=none;endFill=0;" edge="1" parent="1" source="24Fvi4qvlNOgEENzGj-l-3" target="24Fvi4qvlNOgEENzGj-l-7">
          <mxGeometry relative="1" as="geometry">
            <Array as="points">
              <mxPoint x="610" y="520" />
              <mxPoint x="610" y="610" />
              <mxPoint x="490" y="610" />
              <mxPoint x="490" y="710" />
            </Array>
          </mxGeometry>
        </mxCell>
        <mxCell id="24Fvi4qvlNOgEENzGj-l-22" style="edgeStyle=orthogonalEdgeStyle;rounded=0;orthogonalLoop=1;jettySize=auto;html=1;exitX=0.75;exitY=0;exitDx=0;exitDy=0;endArrow=none;endFill=0;" edge="1" parent="1" source="24Fvi4qvlNOgEENzGj-l-3">
          <mxGeometry relative="1" as="geometry">
            <mxPoint x="460" y="470" as="targetPoint" />
          </mxGeometry>
        </mxCell>
        <mxCell id="24Fvi4qvlNOgEENzGj-l-3" value="" style="verticalLabelPosition=middle;verticalAlign=middle;html=1;shape=trapezoid;perimeter=trapezoidPerimeter;whiteSpace=wrap;size=0.23;arcSize=10;flipV=1;labelPosition=center;align=center;rotation=-90;" vertex="1" parent="1">
          <mxGeometry x="510" y="490" width="100" height="60" as="geometry" />
        </mxCell>
        <mxCell id="24Fvi4qvlNOgEENzGj-l-16" style="edgeStyle=orthogonalEdgeStyle;rounded=0;orthogonalLoop=1;jettySize=auto;html=1;exitX=0;exitY=0.25;exitDx=0;exitDy=0;exitPerimeter=0;endArrow=none;endFill=0;" edge="1" parent="1" source="24Fvi4qvlNOgEENzGj-l-4">
          <mxGeometry relative="1" as="geometry">
            <mxPoint x="40" y="590" as="targetPoint" />
          </mxGeometry>
        </mxCell>
        <mxCell id="24Fvi4qvlNOgEENzGj-l-17" style="edgeStyle=orthogonalEdgeStyle;rounded=0;orthogonalLoop=1;jettySize=auto;html=1;exitX=0;exitY=0.75;exitDx=0;exitDy=0;exitPerimeter=0;endArrow=none;endFill=0;" edge="1" parent="1" source="24Fvi4qvlNOgEENzGj-l-4">
          <mxGeometry relative="1" as="geometry">
            <mxPoint x="40" y="524.5714285714287" as="targetPoint" />
          </mxGeometry>
        </mxCell>
        <mxCell id="24Fvi4qvlNOgEENzGj-l-4" value="" style="verticalLabelPosition=bottom;shadow=0;dashed=0;align=center;html=1;verticalAlign=top;shape=mxgraph.electrical.logic_gates.logic_gate;operation=xor;" vertex="1" parent="1">
          <mxGeometry x="70" y="480" width="100" height="60" as="geometry" />
        </mxCell>
        <mxCell id="24Fvi4qvlNOgEENzGj-l-18" style="edgeStyle=orthogonalEdgeStyle;rounded=0;orthogonalLoop=1;jettySize=auto;html=1;exitX=0;exitY=0.75;exitDx=0;exitDy=0;exitPerimeter=0;endArrow=none;endFill=0;" edge="1" parent="1" source="24Fvi4qvlNOgEENzGj-l-5">
          <mxGeometry relative="1" as="geometry">
            <mxPoint x="180" y="590" as="targetPoint" />
          </mxGeometry>
        </mxCell>
        <mxCell id="24Fvi4qvlNOgEENzGj-l-5" value="" style="verticalLabelPosition=bottom;shadow=0;dashed=0;align=center;html=1;verticalAlign=top;shape=mxgraph.electrical.logic_gates.logic_gate;operation=xor;" vertex="1" parent="1">
          <mxGeometry x="200" y="480" width="100" height="60" as="geometry" />
        </mxCell>
        <mxCell id="24Fvi4qvlNOgEENzGj-l-19" style="edgeStyle=orthogonalEdgeStyle;rounded=0;orthogonalLoop=1;jettySize=auto;html=1;exitX=0;exitY=0.75;exitDx=0;exitDy=0;exitPerimeter=0;endArrow=none;endFill=0;" edge="1" parent="1" source="24Fvi4qvlNOgEENzGj-l-6">
          <mxGeometry relative="1" as="geometry">
            <mxPoint x="340" y="590" as="targetPoint" />
          </mxGeometry>
        </mxCell>
        <mxCell id="24Fvi4qvlNOgEENzGj-l-21" style="edgeStyle=orthogonalEdgeStyle;rounded=0;orthogonalLoop=1;jettySize=auto;html=1;exitX=1;exitY=0.5;exitDx=0;exitDy=0;exitPerimeter=0;endArrow=none;endFill=0;" edge="1" parent="1" source="24Fvi4qvlNOgEENzGj-l-6" target="24Fvi4qvlNOgEENzGj-l-3">
          <mxGeometry relative="1" as="geometry" />
        </mxCell>
        <mxCell id="24Fvi4qvlNOgEENzGj-l-28" style="edgeStyle=orthogonalEdgeStyle;rounded=0;orthogonalLoop=1;jettySize=auto;html=1;exitX=1;exitY=0.5;exitDx=0;exitDy=0;exitPerimeter=0;endArrow=none;endFill=0;" edge="1" parent="1" source="24Fvi4qvlNOgEENzGj-l-6">
          <mxGeometry relative="1" as="geometry">
            <mxPoint x="440" y="590" as="targetPoint" />
            <Array as="points">
              <mxPoint x="450" y="510" />
              <mxPoint x="450" y="565" />
              <mxPoint x="441" y="565" />
            </Array>
          </mxGeometry>
        </mxCell>
        <mxCell id="24Fvi4qvlNOgEENzGj-l-6" value="" style="verticalLabelPosition=bottom;shadow=0;dashed=0;align=center;html=1;verticalAlign=top;shape=mxgraph.electrical.logic_gates.logic_gate;operation=xor;" vertex="1" parent="1">
          <mxGeometry x="360" y="480" width="100" height="60" as="geometry" />
        </mxCell>
        <mxCell id="24Fvi4qvlNOgEENzGj-l-12" style="edgeStyle=orthogonalEdgeStyle;rounded=0;orthogonalLoop=1;jettySize=auto;html=1;endArrow=none;endFill=0;" edge="1" parent="1" source="24Fvi4qvlNOgEENzGj-l-7">
          <mxGeometry relative="1" as="geometry">
            <mxPoint x="690" y="580" as="targetPoint" />
          </mxGeometry>
        </mxCell>
        <mxCell id="24Fvi4qvlNOgEENzGj-l-30" style="edgeStyle=orthogonalEdgeStyle;rounded=0;orthogonalLoop=1;jettySize=auto;html=1;exitX=0;exitY=0.25;exitDx=0;exitDy=0;endArrow=none;endFill=0;" edge="1" parent="1" source="24Fvi4qvlNOgEENzGj-l-7">
          <mxGeometry relative="1" as="geometry">
            <mxPoint x="520" y="678" as="targetPoint" />
          </mxGeometry>
        </mxCell>
        <mxCell id="24Fvi4qvlNOgEENzGj-l-7" value="LFSR&lt;div&gt;REG&lt;/div&gt;" style="whiteSpace=wrap;html=1;aspect=fixed;" vertex="1" parent="1">
          <mxGeometry x="540" y="650" width="110" height="110" as="geometry" />
        </mxCell>
        <mxCell id="24Fvi4qvlNOgEENzGj-l-8" value="" style="endArrow=none;html=1;rounded=0;entryX=0.25;entryY=0;entryDx=0;entryDy=0;" edge="1" parent="1" target="24Fvi4qvlNOgEENzGj-l-3">
          <mxGeometry width="50" height="50" relative="1" as="geometry">
            <mxPoint x="20" y="840" as="sourcePoint" />
            <mxPoint x="460" y="840" as="targetPoint" />
            <Array as="points">
              <mxPoint x="460" y="840" />
              <mxPoint x="460" y="545" />
            </Array>
          </mxGeometry>
        </mxCell>
        <mxCell id="24Fvi4qvlNOgEENzGj-l-11" value="" style="endArrow=none;html=1;rounded=0;" edge="1" parent="1">
          <mxGeometry width="50" height="50" relative="1" as="geometry">
            <mxPoint x="40" y="585" as="sourcePoint" />
            <mxPoint x="730" y="585" as="targetPoint" />
          </mxGeometry>
        </mxCell>
        <mxCell id="24Fvi4qvlNOgEENzGj-l-13" value="result [7:0]&amp;nbsp;" style="text;html=1;align=center;verticalAlign=middle;resizable=0;points=[];autosize=1;strokeColor=none;fillColor=none;" vertex="1" parent="1">
          <mxGeometry x="670" y="558" width="80" height="30" as="geometry" />
        </mxCell>
        <mxCell id="24Fvi4qvlNOgEENzGj-l-14" value="rst_i" style="text;html=1;align=center;verticalAlign=middle;resizable=0;points=[];autosize=1;strokeColor=none;fillColor=none;" vertex="1" parent="1">
          <mxGeometry x="5" y="808" width="50" height="30" as="geometry" />
        </mxCell>
        <mxCell id="24Fvi4qvlNOgEENzGj-l-15" style="edgeStyle=orthogonalEdgeStyle;rounded=0;orthogonalLoop=1;jettySize=auto;html=1;exitX=1;exitY=0.5;exitDx=0;exitDy=0;exitPerimeter=0;entryX=0;entryY=0.25;entryDx=0;entryDy=0;entryPerimeter=0;endArrow=none;endFill=0;" edge="1" parent="1" source="24Fvi4qvlNOgEENzGj-l-4" target="24Fvi4qvlNOgEENzGj-l-5">
          <mxGeometry relative="1" as="geometry" />
        </mxCell>
        <mxCell id="24Fvi4qvlNOgEENzGj-l-20" style="edgeStyle=orthogonalEdgeStyle;rounded=0;orthogonalLoop=1;jettySize=auto;html=1;exitX=1;exitY=0.5;exitDx=0;exitDy=0;exitPerimeter=0;entryX=0;entryY=0.25;entryDx=0;entryDy=0;entryPerimeter=0;endArrow=none;endFill=0;" edge="1" parent="1" source="24Fvi4qvlNOgEENzGj-l-5" target="24Fvi4qvlNOgEENzGj-l-6">
          <mxGeometry relative="1" as="geometry" />
        </mxCell>
        <mxCell id="24Fvi4qvlNOgEENzGj-l-23" value="result[0]" style="text;html=1;align=center;verticalAlign=middle;resizable=0;points=[];autosize=1;strokeColor=none;fillColor=none;" vertex="1" parent="1">
          <mxGeometry x="15" y="458" width="70" height="30" as="geometry" />
        </mxCell>
        <mxCell id="24Fvi4qvlNOgEENzGj-l-24" value="result[1]" style="text;html=1;align=center;verticalAlign=middle;resizable=0;points=[];autosize=1;strokeColor=none;fillColor=none;" vertex="1" parent="1">
          <mxGeometry x="15" y="518" width="70" height="30" as="geometry" />
        </mxCell>
        <mxCell id="24Fvi4qvlNOgEENzGj-l-25" value="result[5]" style="text;html=1;align=center;verticalAlign=middle;resizable=0;points=[];autosize=1;strokeColor=none;fillColor=none;" vertex="1" parent="1">
          <mxGeometry x="180" y="540" width="70" height="30" as="geometry" />
        </mxCell>
        <mxCell id="24Fvi4qvlNOgEENzGj-l-26" value="&lt;span style=&quot;font-size: 12.000001px;&quot;&gt;result[6]&lt;/span&gt;" style="text;html=1;align=center;verticalAlign=middle;resizable=0;points=[];autosize=1;strokeColor=none;fillColor=none;" vertex="1" parent="1">
          <mxGeometry x="335" y="538" width="70" height="30" as="geometry" />
        </mxCell>
        <mxCell id="24Fvi4qvlNOgEENzGj-l-27" value="s=1&lt;div&gt;init_val&lt;/div&gt;" style="text;html=1;align=center;verticalAlign=middle;resizable=0;points=[];autosize=1;strokeColor=none;fillColor=none;" vertex="1" parent="1">
          <mxGeometry x="450" y="433" width="60" height="40" as="geometry" />
        </mxCell>
        <mxCell id="24Fvi4qvlNOgEENzGj-l-29" value="&lt;span style=&quot;caret-color: rgb(0, 0, 0); color: rgb(0, 0, 0); font-family: Helvetica; font-size: 12.000001px; font-style: normal; font-variant-caps: normal; font-weight: 400; letter-spacing: normal; orphans: auto; text-align: center; text-indent: 0px; text-transform: none; white-space: nowrap; widows: auto; word-spacing: 0px; -webkit-text-stroke-width: 0px; background-color: rgb(251, 251, 251); text-decoration: none; display: inline !important; float: none;&quot;&gt;result[6:0]&lt;/span&gt;" style="text;whiteSpace=wrap;html=1;" vertex="1" parent="1">
          <mxGeometry x="405" y="540" width="80" height="40" as="geometry" />
        </mxCell>
        <mxCell id="24Fvi4qvlNOgEENzGj-l-31" value="clk" style="text;html=1;align=center;verticalAlign=middle;resizable=0;points=[];autosize=1;strokeColor=none;fillColor=none;" vertex="1" parent="1">
          <mxGeometry x="500" y="648" width="40" height="30" as="geometry" />
        </mxCell>
        <mxCell id="24Fvi4qvlNOgEENzGj-l-35" style="edgeStyle=orthogonalEdgeStyle;rounded=0;orthogonalLoop=1;jettySize=auto;html=1;exitX=0.5;exitY=1;exitDx=0;exitDy=0;entryX=0.42;entryY=1.033;entryDx=0;entryDy=0;entryPerimeter=0;endArrow=none;endFill=0;" edge="1" parent="1" source="24Fvi4qvlNOgEENzGj-l-1" target="24Fvi4qvlNOgEENzGj-l-2">
          <mxGeometry relative="1" as="geometry" />
        </mxCell>
        <mxCell id="24Fvi4qvlNOgEENzGj-l-39" value="start_i" style="text;html=1;align=center;verticalAlign=middle;resizable=0;points=[];autosize=1;strokeColor=none;fillColor=none;" vertex="1" parent="1">
          <mxGeometry x="60" y="718" width="60" height="30" as="geometry" />
        </mxCell>
        <mxCell id="24Fvi4qvlNOgEENzGj-l-42" value="s=1" style="text;html=1;align=center;verticalAlign=middle;resizable=0;points=[];autosize=1;strokeColor=none;fillColor=none;" vertex="1" parent="1">
          <mxGeometry x="250" y="670" width="40" height="30" as="geometry" />
        </mxCell>
      </root>
    </mxGraphModel>
  </diagram>
</mxfile>
